<?xml version="1.0" standalone="no"?><!DOCTYPE svg PUBLIC "-//W3C//DTD SVG 1.1//EN" "http://www.w3.org/Graphics/SVG/1.1/DTD/svg11.dtd"><svg t="1564742966700" class="icon" viewBox="0 0 1024 1024" version="1.1" xmlns="http://www.w3.org/2000/svg" p-id="7736" xmlns:xlink="http://www.w3.org/1999/xlink" width="200" height="200"><defs><style type="text/css"></style></defs><path d="M578.7 862.1H172.9c-9.5 0-15.3-10.8-10.3-19.3l405.8-693.5c6.4-10.9 22.5-6.2 22.5 6.6v693.5c0 7-5.5 12.7-12.2 12.7z"  p-id="7737"></path><path d="M566.9 199.4v638.7H193.2l373.7-638.7m11.7-56.2c-3.9 0-7.8 1.9-10.2 6.1L162.6 842.8c-4.9 8.4 0.9 19.3 10.3 19.3h405.8c6.7 0 12.1-5.7 12.1-12.7V155.9c0.1-7.9-6-12.7-12.2-12.7z"  p-id="7738"></path><path d="M470.5 572.1v154.5h-90.4l90.4-154.5m16.6-69c-2.4 0-4.7 1.1-6.2 3.6L344.7 739.6c-2.8 4.9 0.7 11 6.3 11h136.3c4 0 7.3-3.3 7.3-7.3V510.4c-0.1-4.5-3.8-7.3-7.5-7.3z"  p-id="7739"></path><path d="M806.8 861.9H655.6c-6.7 0-12.1-5.4-12.1-12.1V155.1c0-6.7 5.4-12.1 12.1-12.1h151.2c6.7 0 12.1 5.4 12.1 12.1v694.7c0.1 6.7-5.4 12.1-12.1 12.1z"  p-id="7740"></path><path d="M795 167v670.9H667.4V167H795m11.8-24H655.6c-6.7 0-12.1 5.4-12.1 12.1v694.7c0 6.7 5.4 12.1 12.1 12.1h151.2c6.7 0 12.1-5.4 12.1-12.1V155.1c0.1-6.6-5.4-12.1-12.1-12.1z"  p-id="7741"></path><path d="M754.1 227.2h43.7"  p-id="7742"></path><path d="M754.1 215.2h43.7v24h-43.7z"  p-id="7743"></path><path d="M754.1 289.1h43.7"  p-id="7744"></path><path d="M754.1 277.1h43.7v24h-43.7z"  p-id="7745"></path><path d="M754.1 416.4h43.7"  p-id="7746"></path><path d="M754.1 404.4h43.7v24h-43.7z"  p-id="7747"></path><path d="M754.1 475.8h43.7"  p-id="7748"></path><path d="M754.1 463.8h43.7v24h-43.7z"  p-id="7749"></path><path d="M731.2 353.4h66.6"  p-id="7750"></path><path d="M731.2 341.4h66.6v24h-66.6z"  p-id="7751"></path><path d="M754.1 594.6h43.7"  p-id="7752"></path><path d="M754.1 582.6h43.7v24h-43.7z"  p-id="7753"></path><path d="M754.1 657.7h43.7"  p-id="7754"></path><path d="M754.1 645.7h43.7v24h-43.7z"  p-id="7755"></path><path d="M731.2 536.4h66.6"  p-id="7756"></path><path d="M731.2 524.5h66.6v24h-66.6z"  p-id="7757"></path><path d="M754.1 782.5h43.7"  p-id="7758"></path><path d="M754.1 770.5h43.7v24h-43.7z"  p-id="7759"></path><path d="M754.1 844.4h43.7"  p-id="7760"></path><path d="M754.1 832.4h43.7v24h-43.7z"  p-id="7761"></path><path d="M731.2 719.5h66.6"  p-id="7762"></path><path d="M731.2 707.5h66.6v24h-66.6z"  p-id="7763"></path></svg>